# AST/ASF file generated using VICON BodyLanguage
# -----------------------------------------------
:version 1.10
:name VICON
:units
  mass 1.0
  length 0.45
  angle deg
:documentation
   .ast/.asf automatically generated from VICON data using
   VICON BodyBuilder and BodyLanguage model FoxedUp or BRILLIANT.MOD
:root
   order TX TY TZ RX RY RZ
   axis XYZ
   position 0 0 0  
   orientation 0 0 0 
:bonedata
  begin
     id 1 
     name lhipjoint
     direction 0.707368 -0.647095 0.284426 
     length 2.60678 
     axis 0 0 0  XYZ
  end
  begin
     id 2 
     name lfemur
     direction 0.34202 -0.939693 0  
     length 6.63812  
     axis 0 0 20  XYZ
    dof rx ry rz
    limits (-160.0 20.0)
           (-70.0 70.0)
           (-60.0 70.0)
  end
  begin
     id 3 
     name ltibia
     direction 0.34202 -0.939693 0   
     length 7.51178   
     axis 0 0 20   XYZ
    dof rx
    limits (-10.0 170.0)
  end
  begin
     id 4 
     name lfoot
     direction 0.121251 -0.333133 0.935051   
     length 1.83716   
     axis -90 7.62852e-016 20   XYZ
    dof rx rz
    limits (-45.0 90.0)
           (-70.0 20.0)
  end
  begin
     id 5 
     name ltoes
     direction 1.53611e-011 -4.21962e-011 1   
     length 0.916133   
     axis -90 7.62852e-016 20   XYZ
    dof rx
    limits (-90.0 20.0)
  end
  begin
     id 6 
     name rhipjoint
     direction -0.692419 -0.660507 0.290321   
     length 2.55385  
     axis 0 0 0  XYZ 
  end
  begin
     id 7 
     name rfemur
     direction -0.34202 -0.939693 0   
     length 7.29079   
     axis 0 0 -20   XYZ
    dof rx ry rz
    limits (-160.0 20.0)
           (-70.0 70.0)
           (-70.0 60.0)
  end
  begin
     id 8 
     name rtibia
     direction -0.34202 -0.939693 0   
     length 7.47143   
     axis 0 0 -20   XYZ
    dof rx
    limits (-10.0 170.0)
 end
 begin
     id 9 
     name rfoot
     direction -0.119907 -0.329441 0.936532   
     length 1.79439  
     axis -90 -7.62852e-016 -20   XYZ
    dof rx rz
    limits (-45.0 90.0)
           (-20.0 70.0)
  end
  begin
     id 10 
     name rtoes
     direction -1.53571e-011 -4.21961e-011 1   
     length 0.896039   
     axis -90 -7.62852e-016 -20   XYZ
    dof rx
    limits (-90.0 20.0)
  end
  begin
     id 11 
     name lowerback
     direction 0.0367721 0.992912 -0.113016   
     length 1.73542   
     axis 0 0 0   XYZ
    dof rx ry rz
    limits (-20.0 45.0)
           (-30.0 30.0)
           (-30.0 30.0)
  end
  begin
     id 12 
     name upperback
     direction -0.000314626 0.990678 0.136227   
     length 1.7514   
     axis 0 0 0   XYZ
    dof rx ry rz
    limits (-20.0 45.0)
           (-30.0 30.0)
           (-30.0 30.0)
  end
  begin
     id 13 
     name thorax
     direction -0.0226159 0.981151 0.191917   
     length 1.71471   
     axis 0 0 0   XYZ
    dof rx ry rz
    limits (-20.0 45.0)
           (-30.0 30.0)
           (-30.0 30.0)
  end
  begin
     id 14 
     name lowerneck
     direction 0.0219333 0.998071 0.0580739   
     length 1.65882   
     axis 0 0 0   XYZ
    dof rx ry rz
    limits (-20.0 45.0)
           (-30.0 30.0)
           (-30.0 30.0)
  end
  begin
     id 15 
     name upperneck
     direction 0.0384529 0.980058 -0.194957   
     length 1.6612   
     axis 0 0 0   XYZ
    dof rx ry rz
    limits (-20.0 45.0)
           (-30.0 30.0)
           (-30.0 30.0)
  end
  begin
     id 16
     name head
     direction 0.00592123 0.997421 -0.0715234  
     length 1.68077  
     axis 0 0 0   XYZ
    dof rx ry rz
    limits (-20.0 45.0)
           (-30.0 30.0)
           (-30.0 30.0)
  end
  begin
     id 17 
     name lclavicle
     direction 0.904803 0.417826 0.0821728  
     length 3.42227  
     axis 0 0 0   XYZ
    dof ry rz
    limits (-20.0 10.0)
           (0.0 20.0)
  end
  begin
     id 18 
     name lhumerus
     direction 1 -4.48965e-011 -2.68786e-027   
     length 5.11878   
     axis -180 -30 -90   XYZ
    dof rx ry rz
    limits (-60.0 90.0)
           (-90.0 90.0)
           (-90.0 90.0)
  end
  begin
     id 19
     name lradius
     direction 1 -4.48965e-011 2.61168e-028   
     length 3.59971   
     axis -180 -30 -90   XYZ
    dof rx
    limits (-10.0 170.0)
  end
  begin
     id 20
     name lwrist
     direction 1 -4.48965e-011 1.58672e-027   
     length 1.79985   
     axis -1.65735e-015 90 90   XYZ
    dof ry
    limits (-180.0 0.0)
 end
  begin
     id 21 
     name lhand
     direction 1 -4.48942e-011 3.17344e-027   
     length 0.62877   
     axis -2.02492e-015 90 90   XYZ
    dof rx rz
    limits (-90.0 90.0)
           (-45.0 45.0)
  end
  begin
     id 22 
     name lfingers
     direction 1 -4.49011e-011 6.34687e-027   
     length 0.506931   
     axis -4.04985e-015 90 90   XYZ
    dof rx
    limits (0.0 90.0)
  end
  begin
     id 23
     name lthumb
     direction 0.707107 -6.34982e-011 0.707107   
     length 0.727854   
     axis -90 45 2.85299e-015   XYZ
    dof rx rz
    limits (-45.0 45.0)
           (-45.0 45.0)
  end
  begin
     id 24 
     name rclavicle
     direction -0.945647 0.32488 0.0143075   
     length 3.52737  
     axis 0 0 0   XYZ 
    dof ry rz
    limits (-10.0 20.0)
           (-20.0 0.0)
  end
  begin
     id 25 
     name rhumerus
     direction -1 -4.48962e-011 1.92182e-027  
     length 5.4902   
     axis -180 30 90   XYZ
    dof rx ry rz
    limits (-90.0 60.0)
           (-90.0 90.0)
           (-90.0 90.0)
  end
  begin
     id 26 
     name rradius
     direction -1 -4.48967e-011 -5.97193e-028   
     length 3.20659   
     axis -180 30 90   XYZ
    dof rx
    limits (-10.0 170.0)
  end
  begin
     id 27 
     name rwrist
     direction -1 -4.48964e-011 1.58672e-027   
     length 1.6033   
     axis -1.65735e-015 -90 -90   XYZ
    dof ry
    limits (-180.0 0.0)
  end
  begin
     id 28
     name rhand
     direction -1 -4.49006e-011 3.17344e-027   
     length 0.691885   
     axis -2.02492e-015 -90 -90   XYZ
    dof rx rz
    limits (-90.0 90.0)
           (-45.0 45.0)
  end
  begin
     id 29
     name rfingers
     direction -1 -4.48908e-011 6.34687e-027   
     length 0.557815   
     axis -4.04985e-015 -90 -90   XYZ
    dof rx
    limits (0.0 90.0)
  end
  begin
     id 30
     name rthumb
     direction -0.707107 -6.34999e-011 0.707107   
     length 0.800915   
     axis -90 -45 -2.85299e-015   XYZ
    dof rx rz
    limits (-45.0 45.0)
           (-45.0 45.0)
  end
:hierarchy
  begin
    root lhipjoint rhipjoint lowerback
    lhipjoint lfemur
    lfemur ltibia
    ltibia lfoot
    lfoot ltoes
    rhipjoint rfemur
    rfemur rtibia
    rtibia rfoot
    rfoot rtoes
    lowerback upperback
    upperback thorax
    thorax lowerneck lclavicle rclavicle
    lowerneck upperneck
    upperneck head
    lclavicle lhumerus
    lhumerus lradius
    lradius lwrist
    lwrist lhand lthumb
    lhand lfingers
    rclavicle rhumerus
    rhumerus rradius
    rradius rwrist
    rwrist rhand rthumb
    rhand rfingers
  end

#!OML:ASF I:\Actors\actors\Patient Classification 1\Patient 1\Session 1\Subject1.ASF
:FULLY-SPECIFIED
:DEGREES
32
root 0.817829 17.4794 8.64639 10.251 1.20788 -8.95428
lowerback -4.04983 0.811611 6.04142
upperback -9.78618 1.25949 1.78663
thorax -7.95887 0.256642 -1.51957
lowerneck -2.04754 -12.0488 -12.0935
upperneck 18.5925 -18.4407 13.6738
head 8.51466 -8.74031 4.73725
rclavicle 7.85199e-015 7.15625e-015
rhumerus -51.696 -34.2214 -58.694
rradius 17.6745
rwrist 53.2737
rhand 6.14843 -30.0374
rfingers 7.12502
rthumb 31.4647 -57.3492
lclavicle 7.85199e-015 7.15625e-015
lhumerus -57.6171 38.9991 50.6695
lradius 13.782
lwrist -52.2153
lhand -22.5728 -11.1713
lfingers 7.12502
lthumb 3.85563 18.7735
rfemur -4.55953 25.7908 25.2608
rtibia 1.66706
rfoot -12.3013 -24.8702
rtoes 3.28146
lfemur 3.71174 -49.6247 -9.64546
ltibia -4.71375
lfoot -25.3157 54.0649
ltoes 10.6022
33
root 0.817704 17.4799 8.64436 10.2461 1.21047 -8.94587
lowerback -4.05424 0.792055 6.01987
upperback -9.78399 1.23385 1.8087
thorax -7.9562 0.246608 -1.48362
lowerneck -2.02637 -12.0338 -12.1245
upperneck 18.5674 -18.4165 13.6804
head 8.50256 -8.73218 4.74892
rclavicle -8.44835e-015 3.06128e-014
rhumerus -51.6052 -34.1447 -58.759
rradius 17.6551
rwrist 53.2285
rhand 6.11758 -29.9885
rfingers 7.12502
rthumb 31.4354 -57.3061
lclavicle -8.44835e-015 3.06128e-014
lhumerus -56.742 38.1653 52.2802
lradius 14.0681
lwrist -50.9076
lhand -22.2641 -9.39003
lfingers 7.12502
lthumb 4.15377 20.5492
rfemur -4.5764 25.6927 25.2436
rtibia 1.66091
rfoot -12.2701 -24.7864
rtoes 2.92514
lfemur 3.65482 -49.4993 -9.61406
ltibia -4.69773
lfoot -24.9941 53.9988
ltoes 10.1816
34
root 0.817343 17.4798 8.64344 10.2425 1.23497 -8.937
lowerback -4.0894 0.779615 6.00624
upperback -9.76994 1.21392 1.81675
thorax -7.92177 0.239242 -1.46667
lowerneck -2.08018 -12.04 -12.1276
upperneck 18.5905 -18.418 13.6558
head 8.51813 -8.73148 4.7372
rclavicle -2.41523e-014 -1.19271e-015
rhumerus -51.5523 -34.1641 -58.7638
rradius 17.6216
rwrist 53.2463
rhand 6.12625 -29.9938
rfingers 7.12502
rthumb 31.4436 -57.3098
lclavicle -2.41523e-014 -1.19271e-015
lhumerus -56.3947 37.8559 52.8885
lradius 14.1752
lwrist -50.4866
lhand -22.0812 -8.71885
lfingers 7.12502
lthumb 4.33037 21.2169
rfemur -4.56847 25.6835 25.2373
rtibia 1.64384
rfoot -12.2663 -24.8146
rtoes 2.98504
lfemur 3.61977 -49.474 -9.59601
ltibia -4.68752
lfoot -24.9621 53.9582
ltoes 10.0968
35
root 0.816694 17.4799 8.64203 10.2309 1.23916 -8.95909
lowerback -4.09436 0.800491 6.04306
upperback -9.76138 1.24074 1.80477
thorax -7.90724 0.249832 -1.50039
lowerneck -2.16723 -12.0703 -12.0878
upperneck 18.6485 -18.4541 13.6067
head 8.54985 -8.7434 4.70376
rclavicle -3.8763e-015 -2.98177e-014
rhumerus -51.5522 -34.2038 -58.7669
rradius 17.6141
rwrist 53.2315
rhand 6.13858 -30.0059
rfingers 7.12502
rthumb 31.4554 -57.3196
lclavicle -3.8763e-015 -2.98177e-014
lhumerus -56.3686 37.8842 52.8513
lradius 14.1644
lwrist -50.7169
lhand -22.131 -8.45893
lfingers 7.12502
lthumb 4.28229 21.4778
rfemur -4.54969 25.7326 25.2712
rtibia 1.64423
rfoot -12.2726 -24.8617
rtoes 3.3255
lfemur 3.6599 -49.5376 -9.59154
ltibia -4.71258
lfoot -25.0308 54.0124
ltoes 10.1526
36
root 0.816413 17.4805 8.64051 10.2257 1.23985 -8.96433
lowerback -4.09361 0.830396 6.07131
upperback -9.75756 1.28017 1.78938
thorax -7.90025 0.266922 -1.53332
lowerneck -2.23986 -12.1067 -12.0419
upperneck 18.6685 -18.4975 13.5687
head 8.56769 -8.75917 4.67306
rclavicle 1.78906e-014 -1.63003e-014
rhumerus -51.5362 -34.2078 -58.7747
rradius 17.598
rwrist 53.1821
rhand 6.18222 -30.0115
rfingers 7.12502
rthumb 31.4969 -57.317
lclavicle 1.78906e-014 -1.63003e-014
lhumerus -56.3348 37.8885 52.8523
lradius 14.1502
lwrist -50.8846
lhand -22.0309 -8.3887
lfingers 7.12502
lthumb 4.37891 21.546
rfemur -4.55465 25.7251 25.2772
rtibia 1.66467
rfoot -12.2957 -24.8355
rtoes 3.33518
lfemur 3.67313 -49.5713 -9.59036
ltibia -4.7206
lfoot -25.259 54.001
ltoes 10.5474
